<svg width="24" height="20" viewBox="0 0 24 20" fill="none" xmlns="http://www.w3.org/2000/svg">
<path id="Vector" d="M4.53249 0.875292C3.65337 0.971195 2.85017 1.27889 2.1229 1.79837C1.39562 2.31785 0.848172 2.9692 0.480539 3.75241C0.288731 4.168 0.164855 4.51965 0.108911 4.80736C0.0529668 5.09507 0.0209988 5.5626 0.0130068 6.20996C0.00501476 6.85731 0.0130068 7.2649 0.0369828 7.43273C0.0609588 7.60056 0.152867 7.7644 0.312707 7.92424C0.424595 8.0681 0.632387 8.21195 0.936084 8.35581C1.17584 8.4677 1.36366 8.57959 1.49952 8.69147C1.63538 8.80336 1.75926 8.94322 1.87115 9.11105C1.98304 9.27889 2.06296 9.43873 2.11091 9.59058C2.15886 9.74242 2.18284 9.93823 2.18284 10.178C2.18284 10.4177 2.15886 10.6136 2.11091 10.7654C2.06296 10.9172 1.98304 11.0731 1.87115 11.2329C1.74328 11.4407 1.60342 11.6006 1.45157 11.7125C1.29972 11.8243 1.09592 11.9362 0.84018 12.0481C0.424595 12.2399 0.160859 12.5037 0.0489708 12.8393C0.0170028 12.9992 0.00501476 13.4267 0.0130068 14.122C0.0209988 14.8173 0.0489708 15.2769 0.0969229 15.5007C0.304715 16.4757 0.768252 17.3149 1.48753 18.0181C2.27075 18.8014 3.23778 19.2889 4.38863 19.4807C4.66036 19.5286 7.1179 19.5526 11.7613 19.5526C16.4046 19.5526 18.8622 19.5286 19.1339 19.4807C20.013 19.3368 20.7962 19.0132 21.4835 18.5097C22.1708 18.0062 22.6903 17.3708 23.042 16.6036C23.2338 16.188 23.3577 15.8363 23.4136 15.5486C23.4696 15.2609 23.5055 14.7894 23.5215 14.134C23.5215 13.6705 23.5135 13.3588 23.4975 13.199C23.4975 12.9912 23.4775 12.8393 23.4376 12.7434C23.3976 12.6475 23.3217 12.5356 23.2098 12.4078C23.066 12.2479 22.8901 12.128 22.6823 12.0481C22.3467 11.9043 22.0909 11.7524 21.9151 11.5926C21.5635 11.2249 21.3716 10.7974 21.3397 10.3099C21.3077 9.82234 21.4356 9.38678 21.7233 9.00316C21.9471 8.71545 22.2668 8.48368 22.6823 8.30786C23.0979 8.13203 23.3617 7.8683 23.4735 7.51665C23.5055 7.35681 23.5175 6.92924 23.5095 6.23393C23.5015 5.53863 23.4735 5.07909 23.4256 4.85531C23.2178 3.88029 22.7543 3.04112 22.035 2.33783C21.2997 1.60256 20.3806 1.12304 19.2777 0.899267C19.1499 0.867298 16.7163 0.847319 11.977 0.839327C7.23778 0.831335 4.75626 0.843323 4.53249 0.875292ZM18.9181 2.31385C19.2538 2.34582 19.5934 2.44172 19.9371 2.60156C20.2807 2.7614 20.5804 2.95321 20.8362 3.17699C21.1878 3.48069 21.4755 3.8643 21.6993 4.32784C21.8432 4.63153 21.9391 4.89127 21.987 5.10706C22.035 5.32284 22.067 5.67849 22.0829 6.17399V6.98918L21.9151 7.0611C21.6434 7.17299 21.3557 7.35681 21.052 7.61255C20.8282 7.78838 20.6164 8.03613 20.4166 8.35581C20.2168 8.67549 20.0769 8.98718 19.997 9.29087C19.9331 9.51465 19.9011 9.81036 19.9011 10.178C19.9011 10.5456 19.9331 10.8413 19.997 11.0651C20.1249 11.5286 20.3527 11.9602 20.6803 12.3598C21.008 12.7594 21.3796 13.0471 21.7952 13.2229L22.0829 13.3668L22.059 14.182C22.059 14.6775 22.039 15.0331 21.999 15.2489C21.9591 15.4647 21.8592 15.7244 21.6993 16.0281C21.2358 16.9872 20.4606 17.6345 19.3736 17.9702L19.014 18.0901H4.50851L4.14887 17.9702C2.99802 17.6185 2.19882 16.9312 1.75127 15.9083C1.63938 15.6525 1.56346 15.4167 1.5235 15.201C1.48354 14.9852 1.46356 14.6535 1.46356 14.206L1.43958 13.3668L1.72729 13.2229C2.14288 13.0471 2.51451 12.7594 2.84218 12.3598C3.16985 11.9602 3.39762 11.5286 3.52549 11.0651C3.58943 10.8413 3.6214 10.5456 3.6214 10.178C3.6214 9.81036 3.58943 9.51465 3.52549 9.29087C3.44557 8.98718 3.30571 8.67549 3.10591 8.35581C2.90611 8.03613 2.69433 7.78838 2.47055 7.61255C2.16685 7.35681 1.87914 7.17299 1.60741 7.0611L1.43958 6.98918L1.46356 6.15002C1.46356 5.70246 1.48354 5.3708 1.5235 5.15501C1.56346 4.93923 1.63938 4.71145 1.75127 4.47169C2.05496 3.7684 2.53449 3.20896 3.18983 2.79337C3.38164 2.69747 3.60941 2.59757 3.87315 2.49367C4.13688 2.38978 4.36466 2.32584 4.55646 2.30186C4.74827 2.27789 7.13788 2.2659 11.7253 2.2659C16.3127 2.2659 18.7103 2.28188 18.9181 2.31385ZM11.3896 5.55062C11.2298 5.59857 11.0819 5.68248 10.9461 5.80236C10.8102 5.92224 10.5904 6.18998 10.2867 6.60556L9.68733 7.37279L8.8242 7.66051C8.23279 7.85231 7.84517 8.01215 7.66136 8.14003C7.47754 8.2679 7.33768 8.45971 7.24178 8.71545C7.14587 8.97119 7.13788 9.23493 7.2178 9.50666C7.26575 9.63453 7.47355 9.9622 7.84118 10.4897L8.39263 11.2569V11.8803C8.40861 12.5516 8.44458 13.0112 8.50052 13.2589C8.55646 13.5067 8.67235 13.7105 8.84817 13.8703C9.10392 14.0941 9.37564 14.206 9.66336 14.206C9.77524 14.206 9.90711 14.186 10.059 14.146C10.2108 14.1061 10.4785 14.0301 10.8622 13.9182L11.7732 13.6545L12.6604 13.9182C13.1878 14.0781 13.5555 14.17 13.7633 14.194C13.971 14.2179 14.1549 14.19 14.3147 14.1101C14.6184 13.9662 14.8262 13.7784 14.9381 13.5466C15.05 13.3149 15.1139 12.7594 15.1299 11.8803V11.2569L15.6334 10.5616C15.9531 10.0981 16.1529 9.79437 16.2328 9.65051C16.3766 9.37879 16.4006 9.08708 16.3047 8.77539C16.2088 8.4637 16.025 8.22794 15.7533 8.0681C15.6094 7.98818 15.2578 7.85231 14.6983 7.66051L13.8352 7.37279L13.2358 6.60556C12.8522 6.09407 12.5884 5.79837 12.4446 5.71845C12.1249 5.49467 11.7732 5.43873 11.3896 5.55062ZM12.2288 7.63653C12.2288 7.63653 12.2288 7.64452 12.2288 7.66051C12.5005 8.01215 12.6843 8.23593 12.7802 8.33183C12.9241 8.47569 13.0839 8.59557 13.2598 8.69147C13.4036 8.73943 13.6833 8.83533 14.0989 8.97919C14.5305 9.12304 14.7543 9.20296 14.7702 9.21895C14.7862 9.23493 14.6264 9.47469 14.2907 9.93823C13.9551 10.4018 13.7712 10.7015 13.7393 10.8373C13.7073 10.9732 13.6833 11.3129 13.6674 11.8563C13.6514 12.3998 13.6394 12.6755 13.6314 12.6835C13.6234 12.6915 13.3477 12.6156 12.8042 12.4557C12.4206 12.3438 12.1649 12.2799 12.037 12.2639C11.8452 12.2319 11.6614 12.2319 11.4855 12.2639C11.3577 12.2799 11.1019 12.3438 10.7183 12.4557C10.1748 12.6156 9.90312 12.6955 9.90312 12.6955C9.87115 12.4078 9.85516 12.128 9.85516 11.8563C9.83918 11.3129 9.8152 10.9732 9.78324 10.8373C9.75127 10.7015 9.56745 10.4018 9.23179 9.93823C8.89612 9.47469 8.73628 9.23493 8.75227 9.21895C8.76825 9.20296 8.99203 9.12304 9.4236 8.97919H9.44757C9.86316 8.83533 10.1349 8.73143 10.2628 8.6675C10.4386 8.58758 10.5984 8.47569 10.7423 8.33183C10.8382 8.21995 11.022 7.98818 11.2937 7.63653L11.3177 7.61255C11.6054 7.24492 11.7573 7.0651 11.7732 7.07309C11.7892 7.08108 11.9411 7.2689 12.2288 7.63653Z" fill="#EF4444"/>
</svg>
