<svg width="14" height="15" viewBox="0 0 14 15" fill="none" xmlns="http://www.w3.org/2000/svg">
<path d="M11.0483 9.05798C10.9116 8.91215 10.7566 8.8005 10.5834 8.72302C10.4103 8.64555 10.2325 8.60681 10.0502 8.60681C9.86795 8.60681 9.6925 8.64555 9.52388 8.72302C9.35526 8.8005 9.19347 8.91215 9.03852 9.05798L8.10884 9.98767C8.07238 9.96944 8.03364 9.95121 7.99263 9.93298C7.95161 9.91475 7.91287 9.89652 7.87641 9.8783C7.83084 9.85095 7.78299 9.82361 7.73286 9.79626C7.68273 9.76892 7.63488 9.74158 7.5893 9.71423C7.1518 9.4408 6.73253 9.11951 6.33149 8.75037C5.93045 8.38123 5.53852 7.96423 5.15571 7.49939C4.97342 7.26241 4.81847 7.04366 4.69087 6.84314C4.56326 6.64262 4.45389 6.4421 4.36274 6.24158C4.48123 6.1322 4.59744 6.02055 4.71138 5.90662C4.82531 5.79268 4.93696 5.68103 5.04634 5.57166C5.08279 5.52608 5.12381 5.48279 5.16938 5.44177C5.21496 5.40076 5.25597 5.35746 5.29243 5.31189C5.60233 5.00199 5.75727 4.66248 5.75727 4.29333C5.75727 3.92419 5.60233 3.58468 5.29243 3.27478L4.48579 2.46814C4.44022 2.42257 4.39464 2.37471 4.34907 2.32458C4.3035 2.27446 4.25793 2.2266 4.21235 2.18103C4.12121 2.08988 4.03006 1.99874 3.93891 1.90759C3.84777 1.81645 3.75207 1.7253 3.6518 1.63416C3.51509 1.48832 3.36242 1.37895 3.1938 1.30603C3.02518 1.23311 2.84972 1.19666 2.66743 1.19666C2.48514 1.19666 2.30968 1.23311 2.14106 1.30603C1.97244 1.37895 1.81066 1.48832 1.65571 1.63416L0.657664 2.65955C0.466258 2.84184 0.315867 3.04919 0.206492 3.28162C0.0971175 3.51404 0.0333154 3.76241 0.0150862 4.02673C-0.0213721 4.45512 0.00825027 4.863 0.103953 5.25037C0.199657 5.63774 0.293081 5.95903 0.384227 6.21423C0.630321 6.86137 0.935659 7.49255 1.30024 8.10779C1.66483 8.72302 2.116 9.34965 2.65376 9.98767C2.97277 10.3796 3.31001 10.7442 3.66548 11.0814C4.02095 11.4278 4.39236 11.7536 4.77973 12.059C5.1671 12.3643 5.57043 12.6446 5.9897 12.8998C6.40897 13.1641 6.83735 13.4011 7.27485 13.6107C7.62121 13.7748 8.01541 13.9366 8.45747 14.0961C8.89953 14.2556 9.37121 14.3536 9.87251 14.39C9.90897 14.39 9.94315 14.39 9.97505 14.39C10.0069 14.39 10.0366 14.39 10.0639 14.39C10.4103 14.39 10.7247 14.3285 11.0073 14.2054C11.2898 14.0824 11.545 13.8978 11.7729 13.6517C11.7729 13.6517 11.7752 13.6517 11.7797 13.6517C11.7843 13.6517 11.7866 13.6472 11.7866 13.6381C11.8595 13.5469 11.9392 13.458 12.0258 13.3715C12.1124 13.2849 12.2013 13.196 12.2924 13.1049C12.3562 13.0502 12.4223 12.9909 12.4907 12.9271C12.559 12.8633 12.6251 12.795 12.6889 12.722C12.8347 12.5762 12.9441 12.4144 13.017 12.2367C13.09 12.059 13.1264 11.8835 13.1264 11.7103C13.1264 11.5189 13.0877 11.3389 13.0102 11.1703C12.9327 11.0017 12.8211 10.8399 12.6752 10.6849L11.0483 9.05798ZM12.1147 12.1752C12.0509 12.239 11.9894 12.2982 11.9301 12.3529C11.8709 12.4076 11.8094 12.4668 11.7456 12.5306C11.6544 12.6218 11.561 12.7175 11.4653 12.8177C11.3696 12.918 11.2762 13.0183 11.185 13.1185C11.0301 13.2826 10.8637 13.4034 10.686 13.4808C10.5083 13.5583 10.3009 13.597 10.0639 13.597C10.0457 13.597 10.0252 13.597 10.0024 13.597C9.9796 13.597 9.95454 13.597 9.9272 13.597C9.4897 13.5697 9.0727 13.4831 8.67622 13.3373C8.27973 13.1914 7.9311 13.0456 7.63032 12.8998C7.21105 12.6993 6.80545 12.476 6.41352 12.2299C6.0216 11.9838 5.64334 11.7194 5.27876 11.4369C4.91418 11.1543 4.56326 10.849 4.22602 10.5209C3.88878 10.1927 3.56977 9.8464 3.26899 9.48181C2.76769 8.88025 2.34386 8.29008 1.99751 7.7113C1.65115 7.13253 1.36404 6.54236 1.13618 5.9408C0.999461 5.57621 0.906037 5.24353 0.855906 4.94275C0.805776 4.64197 0.789826 4.35942 0.808055 4.09509C0.826284 3.92192 0.8673 3.76241 0.931102 3.61658C0.994904 3.47074 1.09061 3.33858 1.21821 3.22009L2.22993 2.20837C2.29373 2.13546 2.36437 2.08305 2.44184 2.05115C2.51932 2.01925 2.59451 2.0033 2.66743 2.0033C2.76769 2.0033 2.85428 2.02608 2.9272 2.07166C3.00011 2.11723 3.05936 2.1628 3.10493 2.20837C3.10493 2.20837 3.10949 2.20837 3.1186 2.20837C3.20063 2.29952 3.28722 2.38839 3.37837 2.47498C3.46951 2.56156 3.5561 2.65043 3.63813 2.74158C3.68371 2.78715 3.73156 2.835 3.78169 2.88513C3.83182 2.93526 3.87967 2.98311 3.92524 3.02869L4.73188 3.83533C4.88683 3.99028 4.9643 4.14294 4.9643 4.29333C4.9643 4.44373 4.88683 4.59639 4.73188 4.75134C4.68631 4.79692 4.64302 4.84021 4.602 4.88123C4.56098 4.92224 4.51769 4.96554 4.47212 5.01111C4.35363 5.13871 4.23286 5.26176 4.10981 5.38025C3.98677 5.49874 3.86144 5.61267 3.73384 5.72205C3.73384 5.73116 3.73156 5.73572 3.727 5.73572C3.72244 5.73572 3.72016 5.73572 3.72016 5.73572C3.59256 5.86332 3.52876 5.98637 3.52876 6.10486C3.52876 6.22335 3.54243 6.32361 3.56977 6.40564C3.56977 6.41475 3.56977 6.42159 3.56977 6.42615C3.56977 6.4307 3.56977 6.43298 3.56977 6.43298C3.67915 6.68819 3.81131 6.94112 3.96626 7.19177C4.12121 7.44242 4.30805 7.70902 4.5268 7.99158L4.54048 8.00525C4.94152 8.50655 5.35851 8.95317 5.79145 9.34509C6.2244 9.73702 6.67785 10.0834 7.1518 10.3842C7.21561 10.4206 7.27941 10.4548 7.34321 10.4867C7.40701 10.5186 7.46626 10.5528 7.52095 10.5892C7.57563 10.6166 7.62804 10.6416 7.67817 10.6644C7.7283 10.6872 7.7716 10.7123 7.80805 10.7396C7.81717 10.7396 7.82401 10.7419 7.82856 10.7465C7.83312 10.751 7.83996 10.7579 7.84907 10.767C7.90376 10.7852 7.95389 10.8011 7.99946 10.8148C8.04503 10.8285 8.09061 10.8353 8.13618 10.8353C8.26378 10.8353 8.36404 10.808 8.43696 10.7533C8.50988 10.6986 8.56001 10.6576 8.58735 10.6302L9.59907 9.61853C9.65376 9.57296 9.71984 9.52511 9.79731 9.47498C9.87479 9.42485 9.9591 9.39978 10.0502 9.39978C10.1414 9.39978 10.2234 9.42257 10.2963 9.46814C10.3693 9.51371 10.4285 9.56384 10.4741 9.61853L12.101 11.2455C12.256 11.4004 12.3334 11.5554 12.3334 11.7103C12.3334 11.8653 12.2605 12.0202 12.1147 12.1752ZM7.54829 3.72595C7.94022 3.78975 8.30936 3.91052 8.65571 4.08826C9.00207 4.26599 9.31652 4.49613 9.59907 4.77869C9.87251 5.06124 10.1004 5.37569 10.2827 5.72205C10.465 6.0684 10.588 6.43298 10.6518 6.8158C10.67 6.91606 10.7156 6.99581 10.7885 7.05505C10.8614 7.1143 10.948 7.14392 11.0483 7.14392C11.0574 7.14392 11.0665 7.14392 11.0756 7.14392C11.0847 7.14392 11.0984 7.14392 11.1166 7.14392C11.226 7.12569 11.3126 7.071 11.3764 6.97986C11.4402 6.88871 11.463 6.78845 11.4448 6.67908C11.3627 6.21423 11.2124 5.77218 10.9936 5.35291C10.7749 4.93363 10.4969 4.55538 10.1596 4.21814C9.82238 3.8809 9.44412 3.60291 9.02485 3.38416C8.60558 3.16541 8.16352 3.01501 7.69868 2.93298C7.5893 2.91475 7.48904 2.93754 7.3979 3.00134C7.30675 3.06514 7.25207 3.15173 7.23384 3.26111C7.21561 3.37048 7.23611 3.47074 7.29536 3.56189C7.3546 3.65304 7.43891 3.70772 7.54829 3.72595ZM13.9741 6.5697C13.9103 6.17778 13.8146 5.79952 13.687 5.43494C13.5685 5.07035 13.4204 4.71716 13.2426 4.37537C13.0649 4.03357 12.8621 3.70772 12.6342 3.39783C12.3972 3.07882 12.142 2.78259 11.8686 2.50916C11.5861 2.2266 11.2898 1.97139 10.9799 1.74353C10.6609 1.51567 10.3305 1.31287 9.98872 1.13513C9.64692 0.957397 9.29373 0.804729 8.92915 0.677124C8.56457 0.558635 8.19087 0.462932 7.80805 0.390015C7.69868 0.371785 7.59842 0.394572 7.50727 0.458374C7.41613 0.522176 7.36144 0.608765 7.34321 0.71814C7.32498 0.827515 7.34777 0.927775 7.41157 1.01892C7.47537 1.11007 7.56196 1.16475 7.67134 1.18298C8.36404 1.30147 9.01802 1.52022 9.63325 1.83923C10.2485 2.15824 10.8068 2.5684 11.3081 3.0697C11.8002 3.56189 12.2081 4.11788 12.5317 4.73767C12.8553 5.35746 13.0717 6.00916 13.1811 6.69275C13.1993 6.79301 13.2472 6.87276 13.3247 6.93201C13.4021 6.99125 13.4864 7.02087 13.5776 7.02087C13.5867 7.02087 13.5981 7.02087 13.6118 7.02087C13.6254 7.02087 13.6368 7.02087 13.6459 7.02087C13.7553 7.00265 13.8419 6.95024 13.9057 6.86365C13.9695 6.77706 13.9923 6.67908 13.9741 6.5697Z" fill="#FF5E00"/>
</svg>
