<svg width="28" height="28" viewBox="0 0 28 28" fill="none" xmlns="http://www.w3.org/2000/svg">
<g id="Frame">
<path id="Vector" fill-rule="evenodd" clip-rule="evenodd" d="M8.4585 11.6667C8.4585 10.1969 9.04235 8.78738 10.0816 7.74812C11.1209 6.70885 12.5304 6.125 14.0002 6.125C15.4699 6.125 16.8794 6.70885 17.9187 7.74812C18.958 8.78738 19.5418 10.1969 19.5418 11.6667C19.5418 13.1364 18.958 14.546 17.9187 15.5852C16.8794 16.6245 15.4699 17.2083 14.0002 17.2083C12.5304 17.2083 11.1209 16.6245 10.0816 15.5852C9.04235 14.546 8.4585 13.1364 8.4585 11.6667ZM14.0002 7.875C12.9946 7.875 12.0301 8.27448 11.319 8.98555C10.608 9.69663 10.2085 10.6611 10.2085 11.6667C10.2085 12.6723 10.608 13.6367 11.319 14.3478C12.0301 15.0589 12.9946 15.4583 14.0002 15.4583C15.0058 15.4583 15.9702 15.0589 16.6813 14.3478C17.3924 13.6367 17.7918 12.6723 17.7918 11.6667C17.7918 10.6611 17.3924 9.69663 16.6813 8.98555C15.9702 8.27448 15.0058 7.875 14.0002 7.875Z" fill="white"/>
<path id="Vector_2" fill-rule="evenodd" clip-rule="evenodd" d="M4.11145 10.3333C4.31086 7.9146 5.41254 5.6593 7.19776 4.01521C8.98298 2.37113 11.3212 1.45849 13.7481 1.4585H14.2521C16.6791 1.45849 19.0172 2.37113 20.8025 4.01521C22.5877 5.6593 23.6894 7.9146 23.8888 10.3333C24.1107 13.0275 23.2784 15.7026 21.5671 17.7953L15.9753 24.6332C15.736 24.9258 15.4346 25.1616 15.093 25.3235C14.7514 25.4855 14.3781 25.5695 14.0001 25.5695C13.6221 25.5695 13.2488 25.4855 12.9072 25.3235C12.5656 25.1616 12.2643 24.9258 12.0249 24.6332L6.43311 17.7953C4.72175 15.7027 3.88941 13.0275 4.11145 10.3333ZM13.7481 3.2085C11.7607 3.2088 9.846 3.95636 8.38415 5.3028C6.9223 6.64924 6.02016 8.49612 5.85678 10.4768C5.67198 12.719 6.36461 14.9454 7.78878 16.687L13.3806 23.526C13.4558 23.618 13.5505 23.6921 13.6578 23.743C13.7652 23.794 13.8825 23.8204 14.0013 23.8204C14.1201 23.8204 14.2374 23.794 14.3447 23.743C14.4521 23.6921 14.5468 23.618 14.6219 23.526L20.2138 16.687C21.6371 14.945 22.3289 12.7187 22.1434 10.4768C21.9801 8.49592 21.0777 6.64888 19.6156 5.30241C18.1535 3.95594 16.2386 3.2085 14.2509 3.2085H13.7469H13.7481Z" fill="white"/>
</g>
</svg>
