<svg width="22" height="24" viewBox="0 0 22 24" fill="none" xmlns="http://www.w3.org/2000/svg">
<path id="Vector" d="M5.54154 0.15877C5.36572 0.190737 5.22985 0.286642 5.13395 0.446482C5.11796 0.510418 5.10598 0.590338 5.09798 0.686243C5.08999 0.782146 5.086 0.973955 5.086 1.26167V1.95697L4.82226 2.0289C4.47061 2.10882 4.09898 2.24069 3.70737 2.4245C3.31577 2.60832 2.96012 2.81212 2.64044 3.03589C2.43265 3.17975 2.19289 3.38354 1.92116 3.64728C1.64943 3.91102 1.44164 4.14678 1.29778 4.35457C0.642439 5.20173 0.226855 6.19274 0.0510305 7.3276C0.0190625 7.55138 0.00307846 9.35757 0.00307846 12.7462C0.00307846 16.1348 0.0190625 17.941 0.0510305 18.1648C0.258823 19.4595 0.770311 20.5744 1.5855 21.5094C2.40068 22.4445 3.43165 23.0878 4.6784 23.4395L4.75033 23.4635C5.00608 23.5274 5.22985 23.5754 5.42166 23.6073C5.6774 23.6233 6.14893 23.6393 6.83625 23.6553H14.8442C15.5316 23.6393 16.0031 23.6233 16.2588 23.6073C16.4506 23.5754 16.6744 23.5274 16.9302 23.4635L17.0021 23.4395C18.121 23.1198 19.08 22.5524 19.8792 21.7372C20.6784 20.922 21.2139 19.955 21.4856 18.8361L21.5096 18.7881C21.5735 18.5324 21.6135 18.3086 21.6295 18.1168C21.6454 17.8451 21.6614 17.3496 21.6774 16.6303V8.83809C21.6614 8.13479 21.6454 7.64728 21.6295 7.37555C21.6135 7.18374 21.5735 6.95997 21.5096 6.70422L21.4856 6.65627C21.2778 5.80912 20.9102 5.04189 20.3827 4.35457C20.2388 4.14678 20.0311 3.91102 19.7593 3.64728C19.4876 3.38354 19.2478 3.17975 19.04 3.03589C18.7204 2.81212 18.3647 2.60832 17.9731 2.4245C17.5815 2.24069 17.2099 2.10882 16.8582 2.0289L16.5945 1.95697V1.21371C16.5945 0.814114 16.5785 0.566362 16.5465 0.470457C16.5146 0.374554 16.4346 0.286642 16.3068 0.206722C16.2269 0.15877 16.099 0.134794 15.9232 0.134794C15.7473 0.134794 15.6195 0.15877 15.5395 0.206722C15.4117 0.286642 15.3317 0.374554 15.2998 0.470457C15.2678 0.566362 15.2438 0.79813 15.2279 1.16576L15.2039 1.83709H6.4766L6.45263 1.16576C6.43665 0.79813 6.41667 0.566362 6.39269 0.470457C6.36871 0.374554 6.29279 0.294634 6.16492 0.230698C6.10098 0.182745 6.00508 0.150778 5.8772 0.134794C5.74933 0.118809 5.63744 0.126802 5.54154 0.15877ZM15.2518 3.87505C15.2518 4.24269 15.2638 4.47046 15.2878 4.55837C15.3118 4.64628 15.3877 4.73819 15.5156 4.8341C15.5795 4.88205 15.7114 4.90602 15.9112 4.90602C16.111 4.90602 16.2508 4.88205 16.3308 4.8341C16.4426 4.73819 16.5146 4.64628 16.5465 4.55837C16.5785 4.47046 16.5945 4.27465 16.5945 3.97096C16.5945 3.58734 16.6145 3.39553 16.6544 3.39553C16.6944 3.39553 16.8063 3.4315 16.9901 3.50343C17.1739 3.57535 17.3298 3.64329 17.4576 3.70722C17.6974 3.80313 17.9611 3.95897 18.2488 4.17475C18.5365 4.39054 18.7683 4.59433 18.9441 4.78614C19.2638 5.13779 19.5395 5.54139 19.7713 5.99693C20.0031 6.45248 20.1509 6.88804 20.2149 7.30363L20.2388 7.49543H1.41766L1.44164 7.37555C1.61746 6.46446 1.99309 5.66526 2.56851 4.97795C3.14394 4.29064 3.86322 3.79513 4.72636 3.49144C4.90218 3.4275 5.00608 3.39553 5.03804 3.39553C5.07001 3.39553 5.086 3.58734 5.086 3.97096C5.086 4.27465 5.10198 4.47046 5.13395 4.55837C5.16592 4.64628 5.23784 4.73819 5.34973 4.8341C5.42965 4.88205 5.56951 4.90602 5.76931 4.90602C5.96911 4.90602 6.10098 4.88205 6.16492 4.8341C6.29279 4.73819 6.36871 4.64628 6.39269 4.55837C6.41667 4.47046 6.42865 4.24269 6.42865 3.87505L6.45263 3.2277H15.2279L15.2518 3.87505ZM20.2868 13.4655C20.2708 15.5754 20.2588 16.8741 20.2508 17.3616C20.2428 17.8491 20.2309 18.1568 20.2149 18.2846C19.8632 19.7072 19.104 20.7941 17.9371 21.5454C17.4736 21.8331 16.9302 22.0489 16.3068 22.1927C16.1629 22.2247 15.8193 22.2407 15.2758 22.2407C14.7323 22.2407 13.2538 22.2407 10.8402 22.2407H6.74034C6.10098 22.2407 5.66142 22.2247 5.42166 22.1927C5.26182 22.1768 5.07001 22.1288 4.84624 22.0489L4.72636 22.0009C4.00707 21.7612 3.36771 21.3576 2.80827 20.7901C2.24883 20.2227 1.85722 19.5793 1.63345 18.8601L1.5855 18.7162C1.52156 18.5084 1.4816 18.3326 1.46562 18.1887C1.43365 17.9809 1.41766 17.5973 1.41766 17.0379L1.39369 8.91002H20.2868V13.4655ZM4.46262 12.0749C4.28679 12.1068 4.15892 12.1748 4.079 12.2787C3.99908 12.3825 3.95912 12.5384 3.95912 12.7462C3.95912 12.906 3.9791 13.0299 4.01906 13.1178C4.05902 13.2057 4.12695 13.2816 4.22286 13.3456C4.28679 13.3776 4.36671 13.3975 4.46262 13.4055C4.55852 13.4135 4.79828 13.4175 5.1819 13.4175C5.56552 13.4175 5.80927 13.4135 5.91317 13.4055C6.01706 13.3975 6.09299 13.3776 6.14094 13.3456C6.25283 13.2816 6.32875 13.2137 6.36871 13.1418C6.40867 13.0699 6.42865 12.946 6.42865 12.7702C6.42865 12.5464 6.39269 12.3825 6.32076 12.2787C6.24883 12.1748 6.12496 12.1068 5.94913 12.0749C5.83724 12.0589 5.58949 12.0509 5.20588 12.0509C4.82226 12.0509 4.57451 12.0589 4.46262 12.0749ZM10.097 12.0749C9.87321 12.1228 9.72536 12.2347 9.65343 12.4105C9.5815 12.5863 9.56951 12.7702 9.61746 12.962C9.66542 13.1538 9.75333 13.2816 9.8812 13.3456C9.94514 13.3776 10.0251 13.3975 10.121 13.4055C10.2169 13.4135 10.4566 13.4175 10.8402 13.4175C11.1919 13.4175 11.4317 13.4135 11.5595 13.4055C11.6874 13.3975 11.7833 13.3736 11.8472 13.3336C11.9112 13.2936 11.9711 13.2177 12.0271 13.1058C12.083 12.9939 12.103 12.8581 12.087 12.6982C12.071 12.4265 11.9671 12.2427 11.7753 12.1468C11.7114 12.1148 11.6354 12.0908 11.5475 12.0749C11.4596 12.0589 11.2638 12.0509 10.9601 12.0509C10.4966 12.0509 10.2089 12.0589 10.097 12.0749ZM15.7313 12.0749C15.5395 12.1068 15.4037 12.1947 15.3238 12.3386C15.2758 12.4025 15.2518 12.5304 15.2518 12.7222C15.2518 12.914 15.2718 13.0499 15.3118 13.1298C15.3517 13.2097 15.4277 13.2816 15.5395 13.3456C15.5875 13.3776 15.6634 13.3975 15.7673 13.4055C15.8712 13.4135 16.115 13.4175 16.4986 13.4175C16.8822 13.4175 17.122 13.4135 17.2179 13.4055C17.3138 13.3975 17.3937 13.3776 17.4576 13.3456C17.5535 13.2816 17.6215 13.2057 17.6614 13.1178C17.7014 13.0299 17.7214 12.906 17.7214 12.7462C17.7214 12.5863 17.7014 12.4625 17.6614 12.3746C17.6215 12.2866 17.5455 12.2107 17.4336 12.1468C17.3697 12.1148 17.2938 12.0908 17.2059 12.0749C17.118 12.0589 16.9062 12.0509 16.5705 12.0509C16.107 12.0509 15.8273 12.0589 15.7313 12.0749ZM4.29479 16.6543C4.11896 16.7502 4.01107 16.886 3.97111 17.0619C3.93115 17.2377 3.93515 17.4055 3.9831 17.5654C4.03105 17.7252 4.11896 17.8371 4.24683 17.901C4.29479 17.933 4.37071 17.953 4.47461 17.961C4.5785 17.969 4.79029 17.973 5.10997 17.973C5.52556 17.9889 5.80528 17.9849 5.94913 17.961C6.09299 17.937 6.20488 17.885 6.2848 17.8051C6.39669 17.6932 6.45263 17.5254 6.45263 17.3016C6.45263 17.1578 6.42466 17.0299 6.36871 16.918C6.31277 16.8061 6.23684 16.7262 6.14094 16.6783C6.09299 16.6623 6.01307 16.6503 5.90118 16.6423C5.78929 16.6343 5.54953 16.6303 5.1819 16.6303C4.63844 16.6303 4.34274 16.6383 4.29479 16.6543ZM9.8812 16.7022C9.70538 16.7821 9.60947 16.97 9.59349 17.2657C9.5775 17.5614 9.67341 17.7732 9.8812 17.901C9.94514 17.933 10.0251 17.953 10.121 17.961C10.2169 17.969 10.4566 17.973 10.8402 17.973C11.2239 17.973 11.4636 17.969 11.5595 17.961C11.6554 17.953 11.7353 17.933 11.7993 17.901C12.0071 17.7732 12.103 17.5614 12.087 17.2657C12.071 16.97 11.9751 16.7821 11.7993 16.7022C11.7353 16.6703 11.6514 16.6503 11.5475 16.6423C11.4436 16.6343 11.2079 16.6303 10.8402 16.6303C10.4726 16.6303 10.2368 16.6343 10.1329 16.6423C10.0291 16.6503 9.94514 16.6703 9.8812 16.7022ZM15.5395 16.6783C15.4436 16.7262 15.3677 16.8061 15.3118 16.918C15.2558 17.0299 15.2279 17.1578 15.2279 17.3016C15.2279 17.5254 15.2838 17.6932 15.3957 17.8051C15.4756 17.885 15.5875 17.937 15.7313 17.961C15.8752 17.9849 16.1549 17.9889 16.5705 17.973C16.9222 17.973 17.1419 17.969 17.2299 17.961C17.3178 17.953 17.3977 17.925 17.4696 17.8771C17.5415 17.8291 17.6015 17.7732 17.6494 17.7092C17.7134 17.5813 17.7413 17.4215 17.7333 17.2297C17.7254 17.0379 17.6774 16.898 17.5895 16.8101C17.5016 16.7222 17.4057 16.6703 17.3018 16.6543C17.1979 16.6383 16.9222 16.6303 16.4746 16.6303C16.123 16.6303 15.8912 16.6343 15.7793 16.6423C15.6674 16.6503 15.5875 16.6623 15.5395 16.6783Z" fill="#EF4444"/>
</svg>
