<svg width="21" height="24" viewBox="0 0 21 24" fill="none" xmlns="http://www.w3.org/2000/svg">
<path id="Vector" d="M9.12999 0.501696C7.56356 0.677519 6.14098 1.13706 4.86226 1.88032C3.58354 2.62357 2.54458 3.60259 1.74538 4.81738C1.2179 5.58461 0.818303 6.40779 0.546574 7.28691C-0.0608183 9.18901 -0.156722 11.1191 0.258862 13.0771C0.674446 15.0352 1.57754 16.9732 2.96815 18.8913C3.67145 19.8503 4.51061 20.8094 5.48564 21.7684C5.9172 22.2 6.26885 22.5157 6.54058 22.7155C6.81231 22.9153 7.14797 23.1111 7.54757 23.3029C8.44268 23.7345 9.39373 23.9463 10.4007 23.9383C11.4077 23.9303 12.3668 23.7105 13.2778 23.2789C13.6774 23.0871 14.0451 22.8593 14.3807 22.5956C14.7164 22.3319 15.124 21.9522 15.6035 21.4567C18.3208 18.6755 19.9751 15.8224 20.5666 12.8973C20.8223 11.6346 20.8463 10.3279 20.6385 8.97722C20.4307 7.62657 20.0231 6.43976 19.4157 5.41678C18.6165 4.01019 17.5456 2.88731 16.2029 2.04815C14.8603 1.20899 13.3258 0.693502 11.5995 0.501696C11.2958 0.469727 10.8842 0.453743 10.3648 0.453743C9.84528 0.453743 9.43369 0.469727 9.12999 0.501696ZM11.4796 1.86833C12.087 1.94825 12.6385 2.06014 13.134 2.20399C13.6295 2.34785 14.141 2.53966 14.6685 2.77942C16.123 3.4987 17.2579 4.51768 18.073 5.83636C18.8882 7.15504 19.3198 8.68551 19.3678 10.4278C19.3997 11.4507 19.2798 12.4617 19.0081 13.4607C18.7364 14.4597 18.2968 15.4867 17.6894 16.5417C16.9062 17.9003 15.8433 19.2589 14.5006 20.6176C14.0531 21.0491 13.6894 21.3728 13.4097 21.5886C13.13 21.8044 12.8063 21.9882 12.4387 22.1401C12.071 22.2919 11.7154 22.3998 11.3717 22.4637C11.0281 22.5277 10.6405 22.5516 10.2089 22.5357C9.68144 22.5197 9.20192 22.4438 8.77035 22.3079C8.33878 22.172 7.90721 21.9522 7.47565 21.6485C7.17195 21.4567 6.73638 21.0731 6.16895 20.4977C5.60152 19.9223 5.09403 19.3548 4.64647 18.7954C3.87924 17.8204 3.23988 16.8294 2.72839 15.8224C2.2169 14.8154 1.85726 13.8244 1.64947 12.8493C1.55357 12.4338 1.49363 12.0901 1.46965 11.8184C1.44568 11.5466 1.43369 11.171 1.43369 10.6915C1.43369 10.148 1.45367 9.71248 1.49363 9.38481C1.53359 9.05714 1.60951 8.66154 1.7214 8.198C2.16895 6.45574 3.06406 5.02118 4.40671 3.8943C5.74937 2.76743 7.37175 2.0921 9.27385 1.86833C9.56156 1.83636 9.93319 1.82038 10.3887 1.82038C10.8443 1.82038 11.2079 1.83636 11.4796 1.86833ZM9.84927 6.20799C8.95417 6.33586 8.17095 6.70349 7.49962 7.31089C7.05207 7.74245 6.71241 8.26193 6.48064 8.86933C6.24887 9.47672 6.16496 10.0841 6.22889 10.6915C6.3248 11.7145 6.74837 12.5856 7.49962 13.3049C8.29882 14.0721 9.26186 14.4557 10.3887 14.4557C11.5156 14.4557 12.4866 14.0721 13.3018 13.3049C14.0371 12.5856 14.4607 11.7145 14.5725 10.6915C14.6365 10.0841 14.5526 9.47672 14.3208 8.86933C14.089 8.26193 13.7454 7.74245 13.2898 7.31089C12.8343 6.87932 12.3028 6.56763 11.6954 6.37582C11.088 6.18401 10.4726 6.12807 9.84927 6.20799ZM11.144 7.64655C11.5276 7.74245 11.8832 7.93027 12.2109 8.20999C12.5386 8.48971 12.7903 8.81338 12.9662 9.18102C13.11 9.5007 13.1819 9.87232 13.1819 10.2959C13.1819 10.7195 13.118 11.0831 12.9901 11.3868C12.8623 11.6905 12.6545 11.9822 12.3668 12.2619C12.079 12.5417 11.7793 12.7455 11.4677 12.8733C11.156 13.0012 10.7963 13.0651 10.3887 13.0651C9.98114 13.0651 9.6215 13.0012 9.30981 12.8733C8.99812 12.7455 8.69842 12.5377 8.41071 12.2499C8.09103 11.9303 7.85926 11.5706 7.71541 11.171C7.65147 10.9952 7.61151 10.7594 7.59553 10.4637C7.57954 10.168 7.59553 9.91628 7.64348 9.70849C7.75537 9.18102 8.02709 8.71748 8.45866 8.31788C8.89023 7.91828 9.38574 7.67852 9.94518 7.5986C10.105 7.56663 10.3048 7.55864 10.5446 7.57462C10.7843 7.59061 10.9841 7.61458 11.144 7.64655Z" fill="#EF4444"/>
</svg>
