<svg width="11" height="11" viewBox="0 0 11 11" fill="none" xmlns="http://www.w3.org/2000/svg">
<path d="M10.1694 0.370605L1.40454 0.370605C1.4008 0.370605 1.398 0.370605 1.39613 0.370605C1.39426 0.370605 1.39145 0.370605 1.38771 0.370605C1.20441 0.370605 1.04636 0.484538 0.913556 0.712402C0.780756 0.940267 0.714355 1.21696 0.714355 1.54248C0.714355 1.71175 0.73306 1.86963 0.770468 2.01611C0.807877 2.1626 0.858378 2.28792 0.921973 2.39209L5.30439 10.0288C5.36424 10.1395 5.43625 10.2257 5.52042 10.2876C5.60459 10.3494 5.69344 10.3804 5.78696 10.3804C5.88048 10.3804 5.96839 10.3494 6.05069 10.2876C6.13299 10.2257 6.20593 10.1395 6.26953 10.0288L10.6519 2.39209C10.7155 2.28792 10.7651 2.1626 10.8006 2.01611C10.8362 1.86963 10.8539 1.71175 10.8539 1.54248C10.8539 1.21696 10.7885 0.940267 10.6576 0.712402C10.5266 0.484538 10.3676 0.370605 10.1806 0.370605C10.1769 0.370605 10.174 0.370605 10.1722 0.370605C10.1703 0.370605 10.1694 0.370605 10.1694 0.370605Z" fill="#FB6400"/>
</svg>
