<svg width="35" height="36" viewBox="0 0 35 36" fill="none" xmlns="http://www.w3.org/2000/svg">
<g id="Frame">
<path id="Vector" fill-rule="evenodd" clip-rule="evenodd" d="M8.3855 17.0889L14.7657 20.7347L17.5001 19.3668L20.2345 20.7347L26.6147 17.0889V6.15137C26.6147 5.42617 26.3266 4.73067 25.8138 4.21787C25.301 3.70508 24.6055 3.41699 23.8803 3.41699H11.1199C10.3947 3.41699 9.69917 3.70508 9.18638 4.21787C8.67358 4.73067 8.3855 5.42617 8.3855 6.15137V17.0889ZM6.56258 9.12783L4.84758 10.0437C4.26438 10.3545 3.77665 10.8181 3.43656 11.3848C3.09646 11.9514 2.91678 12.5999 2.91675 13.2607V13.8309L6.56258 15.9689V9.12783ZM28.4376 15.9689L32.0834 13.8324V13.2607C32.0834 12.5999 31.9037 11.9514 31.5636 11.3848C31.2235 10.8181 30.7358 10.3545 30.1526 10.0437L28.4376 9.12783V15.9689ZM21.7059 22.0282L32.0834 15.947V27.7945L21.7059 22.0282ZM31.9755 29.8201L17.5001 21.7774L3.02466 29.8201C3.22153 30.6094 3.67673 31.3102 4.31782 31.811C4.95892 32.3118 5.74908 32.5838 6.56258 32.5837H28.4376C29.2511 32.5838 30.0412 32.3118 30.6823 31.811C31.3234 31.3102 31.7786 30.6094 31.9755 29.8201ZM13.2942 22.0282L2.91675 27.793V15.9441L13.2942 22.0282ZM17.5001 7.02928C20.5334 3.98137 28.1182 9.31595 17.5001 16.1774C6.88196 9.31595 14.4667 3.97991 17.5001 7.02928Z" fill="#E81C34"/>
</g>
</svg>
