<svg width="19" height="16" viewBox="0 0 19 16" fill="none" xmlns="http://www.w3.org/2000/svg">
<path id="Vector" d="M18.2124 0.353516H3.81592C3.65186 0.353516 3.51123 0.412109 3.39404 0.529297C3.27686 0.646484 3.21826 0.787109 3.21826 0.951172V1.54883H2.60303C2.43896 1.54883 2.29834 1.60742 2.18115 1.72461C2.06396 1.8418 2.00537 1.98242 2.00537 2.14648V2.74414H1.40771C1.24365 2.74414 1.10303 2.80273 0.98584 2.91992C0.868652 3.03711 0.810059 3.17773 0.810059 3.3418V15.0488C0.810059 15.2129 0.868652 15.3535 0.98584 15.4707C1.10303 15.5879 1.24365 15.6465 1.40771 15.6465H15.8042C15.9683 15.6465 16.1089 15.5879 16.2261 15.4707C16.3433 15.3535 16.4019 15.2129 16.4019 15.0488V14.4512H17.0171C17.1812 14.4512 17.3218 14.3926 17.439 14.2754C17.5562 14.1582 17.6147 14.0176 17.6147 13.8535V13.2559H18.2124C18.3765 13.2559 18.5171 13.1973 18.6343 13.0801C18.7515 12.9629 18.8101 12.8223 18.8101 12.6582V0.951172C18.8101 0.787109 18.7515 0.646484 18.6343 0.529297C18.5171 0.412109 18.3765 0.353516 18.2124 0.353516ZM1.40771 3.3418H15.8042V10.0566L14.2397 8.24609C14.1812 8.1875 14.105 8.1582 14.0112 8.1582C13.9175 8.1582 13.8413 8.1875 13.7827 8.24609L11.8843 10.4258L6.71631 5.82031C6.65771 5.77344 6.59033 5.75 6.51416 5.75C6.43799 5.75 6.37061 5.77344 6.31201 5.82031L1.40771 10.1797V3.3418ZM15.8042 14.1523V15.0488H1.40771V10.9883L6.50537 6.45312L11.7085 11.0762C11.7437 11.0996 11.7788 11.1172 11.814 11.1289C11.8491 11.1406 11.8901 11.1465 11.937 11.1465C11.9722 11.1465 12.0073 11.1377 12.0425 11.1201C12.0776 11.1025 12.1069 11.0762 12.1304 11.041L14.0112 8.91406L15.8042 10.9707V14.1523ZM17.0171 13.8535H16.4019V3.3418C16.4019 3.17773 16.3433 3.03711 16.2261 2.91992C16.1089 2.80273 15.9683 2.74414 15.8042 2.74414H2.60303V2.14648H17.0171V13.8535ZM18.2124 12.6582H17.6147V2.14648C17.6147 1.98242 17.5562 1.8418 17.439 1.72461C17.3218 1.60742 17.1812 1.54883 17.0171 1.54883H3.81592V0.951172H18.2124V12.6582ZM11.603 5.15234C11.2749 5.15234 10.9937 5.26953 10.7593 5.50391C10.5249 5.73828 10.4077 6.01953 10.4077 6.34766C10.4077 6.67578 10.5249 6.95703 10.7593 7.19141C10.9937 7.42578 11.2749 7.54297 11.603 7.54297C11.9429 7.54297 12.23 7.42578 12.4644 7.19141C12.6987 6.95703 12.8159 6.67578 12.8159 6.34766C12.8159 6.01953 12.6987 5.73828 12.4644 5.50391C12.23 5.26953 11.9429 5.15234 11.603 5.15234ZM11.603 6.94531C11.439 6.94531 11.2983 6.88672 11.1812 6.76953C11.064 6.65234 11.0054 6.51172 11.0054 6.34766C11.0054 6.18359 11.064 6.04297 11.1812 5.92578C11.2983 5.80859 11.439 5.75 11.603 5.75C11.7788 5.75 11.9253 5.80859 12.0425 5.92578C12.1597 6.04297 12.2183 6.18359 12.2183 6.34766C12.2183 6.51172 12.1597 6.65234 12.0425 6.76953C11.9253 6.88672 11.7788 6.94531 11.603 6.94531Z" fill="white"/>
</svg>
