<svg width="21" height="24" viewBox="0 0 21 24" fill="none" xmlns="http://www.w3.org/2000/svg">
<path id="Vector" d="M9.37806 0.501713C8.00344 0.725489 6.8366 1.3169 5.87756 2.27594C4.91852 3.23498 4.32711 4.39382 4.10334 5.75246C4.07137 5.94427 4.05538 6.24397 4.05538 6.65156C4.05538 7.05915 4.07137 7.35086 4.10334 7.52669C4.32711 8.90131 4.92651 10.0761 5.90154 11.0512C6.49295 11.6426 7.17227 12.0941 7.9395 12.4058C8.70673 12.7175 9.52192 12.8733 10.3851 12.8733C11.2482 12.8733 12.0634 12.7135 12.8306 12.3938C13.5978 12.0741 14.2772 11.6186 14.8686 11.0272C15.8436 10.0522 16.435 8.88533 16.6428 7.52669C16.6748 7.33488 16.6907 7.03918 16.6907 6.63957C16.6907 6.31989 16.6788 6.06015 16.6548 5.86035C16.6308 5.66055 16.5869 5.4168 16.5229 5.12909C16.2192 3.9143 15.5879 2.88333 14.6288 2.03618C13.6698 1.18903 12.5589 0.677536 11.2961 0.501713C11.0404 0.45376 10.7207 0.433781 10.3371 0.441772C9.95349 0.449764 9.63381 0.469744 9.37806 0.501713ZM11.0564 1.84437C11.7117 1.95626 12.3151 2.16805 12.8666 2.47973C13.418 2.79142 13.8935 3.19502 14.2931 3.69052C14.7887 4.32988 15.1083 5.04117 15.2522 5.82439C15.2842 6.0162 15.3001 6.27594 15.3001 6.60361C15.3001 6.93128 15.2842 7.19102 15.2522 7.38283C15.2042 7.78243 15.0923 8.17804 14.9165 8.56964C14.7407 8.96125 14.5329 9.30891 14.2931 9.6126C13.6698 10.3798 12.9025 10.9153 11.9914 11.219C11.48 11.3948 10.9445 11.4827 10.3851 11.4827C9.82561 11.4827 9.29015 11.3948 8.77866 11.219C8.0434 10.9792 7.40404 10.5876 6.86058 10.0442C6.02941 9.213 5.56587 8.22199 5.46997 7.07114C5.40603 6.4158 5.47796 5.77644 5.68575 5.15306C5.89355 4.52968 6.21323 3.97824 6.64479 3.49871C7.41203 2.61959 8.39504 2.07614 9.59385 1.86835C9.76967 1.83638 10.0174 1.82039 10.3371 1.82039C10.6568 1.82039 10.8965 1.82839 11.0564 1.84437ZM9.71373 14.8394C7.98745 14.9193 6.36507 15.3429 4.84659 16.1101C3.66378 16.7175 2.66877 17.4887 1.86158 18.4238C1.05438 19.3589 0.506932 20.3858 0.21922 21.5047C0.107332 21.9203 0.0393996 22.3439 0.0154236 22.7754C-0.00855242 23.207 0.0114276 23.4867 0.0753637 23.6146C0.1393 23.7425 0.2392 23.8344 0.375064 23.8903C0.510928 23.9463 0.674764 23.9583 0.866572 23.9263C1.05838 23.8943 1.19025 23.8144 1.26218 23.6865C1.33411 23.5587 1.37806 23.3109 1.39404 22.9433C1.42601 22.3359 1.56188 21.7325 1.80164 21.1331C2.0414 20.5337 2.37706 19.9782 2.80863 19.4667C3.38405 18.7475 4.13131 18.1241 5.05039 17.5966C5.96947 17.0691 6.95648 16.6855 8.01143 16.4458C8.443 16.3499 8.79464 16.2899 9.06637 16.2659C9.3381 16.242 9.77367 16.23 10.3731 16.23C10.9725 16.23 11.408 16.242 11.6798 16.2659C11.9515 16.2899 12.3111 16.3499 12.7587 16.4458C13.9575 16.7015 15.0444 17.1411 16.0194 17.7645C16.9944 18.3878 17.7697 19.1311 18.3451 19.9942C18.473 20.186 18.6168 20.4418 18.7767 20.7615C18.9365 21.0811 19.0404 21.3369 19.0884 21.5287C19.2482 22.0082 19.3361 22.4797 19.3521 22.9433C19.3681 23.3109 19.412 23.5587 19.484 23.6865C19.5559 23.8144 19.6878 23.8943 19.8796 23.9263C20.0714 23.9583 20.2392 23.9463 20.3831 23.8903C20.5269 23.8344 20.6308 23.7425 20.6947 23.6146C20.7587 23.4867 20.7747 23.207 20.7427 22.7754C20.7107 22.3439 20.6388 21.9203 20.5269 21.5047C20.1753 20.1461 19.44 18.9233 18.3211 17.8364C17.2022 16.7495 15.8436 15.9503 14.2452 15.4388C13.2222 15.1031 12.2312 14.9113 11.2722 14.8634C10.6488 14.8314 10.1293 14.8234 9.71373 14.8394Z" fill="#EF4444"/>
</svg>
