<svg width="11" height="16" viewBox="0 0 11 16" fill="none" xmlns="http://www.w3.org/2000/svg">
<path d="M5.29456 3.86121C4.76721 3.86121 4.31555 4.04919 3.93958 4.42517C3.5636 4.80115 3.37561 5.25281 3.37561 5.78015C3.37561 6.3075 3.5636 6.75916 3.93958 7.13513C4.31555 7.51111 4.76721 7.6991 5.29456 7.6991C5.8219 7.6991 6.27356 7.51111 6.64954 7.13513C7.02552 6.75916 7.2135 6.3075 7.2135 5.78015C7.2135 5.25281 7.02552 4.80115 6.64954 4.42517C6.27356 4.04919 5.8219 3.86121 5.29456 3.86121ZM5.29456 7.1571C4.92346 7.1571 4.60364 7.02283 4.33509 6.75427C4.06653 6.48572 3.93225 6.16101 3.93225 5.78015C3.93225 5.40906 4.06653 5.08923 4.33509 4.82068C4.60364 4.55212 4.92346 4.41785 5.29456 4.41785C5.67542 4.41785 6.00012 4.55212 6.26868 4.82068C6.53723 5.08923 6.67151 5.40906 6.67151 5.78015C6.67151 6.16101 6.53723 6.48572 6.26868 6.75427C6.00012 7.02283 5.67542 7.1571 5.29456 7.1571ZM8.97132 2.11804C8.47327 1.62 7.90442 1.23914 7.26477 0.975464C6.62512 0.711792 5.95374 0.579956 5.25061 0.579956C4.54749 0.579956 3.8761 0.711792 3.23645 0.975464C2.5968 1.23914 2.02796 1.62 1.52991 2.11804C1.07093 2.57703 0.71448 3.1239 0.460574 3.75867C0.206668 4.38367 0.0577421 5.03552 0.0137968 5.71423C-0.0301485 6.39294 0.0308866 7.06433 0.196902 7.72839C0.372683 8.38269 0.655887 8.97351 1.04651 9.50085L5.25061 15.58L9.45471 9.5155C9.84534 8.98816 10.1285 8.39246 10.3043 7.72839C10.4703 7.06433 10.5314 6.39294 10.4874 5.71423C10.4435 5.03552 10.2946 4.38367 10.0407 3.75867C9.78675 3.1239 9.4303 2.57703 8.97132 2.11804ZM9.01526 9.19324L5.25061 14.6132L1.48596 9.17859C1.1344 8.70984 0.880496 8.17273 0.724246 7.56726C0.567996 6.97156 0.509402 6.36609 0.548465 5.75085C0.587527 5.13562 0.724246 4.5448 0.958621 3.97839C1.18323 3.41199 1.5055 2.91882 1.92542 2.4989C2.36487 2.05945 2.87268 1.72009 3.44886 1.48083C4.02503 1.24158 4.62561 1.12195 5.25061 1.12195C5.87561 1.12195 6.4762 1.24158 7.05237 1.48083C7.62854 1.72009 8.13636 2.05945 8.57581 2.4989C8.99573 2.91882 9.318 3.41199 9.54261 3.97839C9.77698 4.5448 9.9137 5.13562 9.95276 5.75085C9.99182 6.36609 9.93323 6.97156 9.77698 7.56726C9.62073 8.17273 9.36682 8.71472 9.01526 9.19324Z" fill="#707070"/>
</svg>
