<svg width="46" height="46" viewBox="0 0 46 46" fill="none" xmlns="http://www.w3.org/2000/svg">
<g id="Frame">
<path id="Vector" fill-rule="evenodd" clip-rule="evenodd" d="M9.19995 22.7701C9.19995 22.4651 9.32111 22.1726 9.53678 21.9569C9.75245 21.7413 10.045 21.6201 10.35 21.6201H35.65C35.801 21.6201 35.9505 21.6499 36.09 21.7077C36.2296 21.7654 36.3563 21.8502 36.4631 21.9569C36.5699 22.0637 36.6546 22.1905 36.7124 22.33C36.7702 22.4696 36.8 22.6191 36.8 22.7701C36.8 22.9211 36.7702 23.0707 36.7124 23.2102C36.6546 23.3497 36.5699 23.4765 36.4631 23.5833C36.3563 23.6901 36.2296 23.7748 36.09 23.8326C35.9505 23.8904 35.801 23.9201 35.65 23.9201H10.35C10.045 23.9201 9.75245 23.799 9.53678 23.5833C9.32111 23.3676 9.19995 23.0751 9.19995 22.7701Z" fill="black"/>
</g>
</svg>
