<svg width="46" height="46" viewBox="0 0 46 46" fill="none" xmlns="http://www.w3.org/2000/svg">
<g id="Frame">
<path id="Vector" fill-rule="evenodd" clip-rule="evenodd" d="M23 9.2002C23.3049 9.2002 23.5975 9.32136 23.8131 9.53702C24.0288 9.75269 24.15 10.0452 24.15 10.3502V21.8502H35.65C35.801 21.8502 35.9505 21.8799 36.09 21.9377C36.2296 21.9955 36.3563 22.0802 36.4631 22.187C36.5699 22.2938 36.6546 22.4206 36.7124 22.5601C36.7702 22.6996 36.8 22.8492 36.8 23.0002C36.8 23.1512 36.7702 23.3008 36.7124 23.4403C36.6546 23.5798 36.5699 23.7066 36.4631 23.8134C36.3563 23.9202 36.2296 24.0049 36.09 24.0627C35.9505 24.1204 35.801 24.1502 35.65 24.1502H24.15V35.6502C24.15 35.9552 24.0288 36.2477 23.8131 36.4634C23.5975 36.679 23.3049 36.8002 23 36.8002C22.695 36.8002 22.4024 36.679 22.1868 36.4634C21.9711 36.2477 21.8499 35.9552 21.8499 35.6502V24.1502H10.35C10.1989 24.1502 10.0494 24.1204 9.90987 24.0627C9.77034 24.0049 9.64357 23.9202 9.53678 23.8134C9.42999 23.7066 9.34528 23.5798 9.28749 23.4403C9.2297 23.3008 9.19995 23.1512 9.19995 23.0002C9.19995 22.8492 9.2297 22.6996 9.28749 22.5601C9.34528 22.4206 9.42999 22.2938 9.53678 22.187C9.64357 22.0802 9.77034 21.9955 9.90987 21.9377C10.0494 21.8799 10.1989 21.8502 10.35 21.8502H21.8499V10.3502C21.8499 10.0452 21.9711 9.75269 22.1868 9.53702C22.4024 9.32136 22.695 9.2002 23 9.2002Z" fill="black"/>
</g>
</svg>
