<svg width="15" height="12" viewBox="0 0 15 12" fill="none" xmlns="http://www.w3.org/2000/svg">
<path d="M14.7803 0.401855C14.6338 0.255371 14.458 0.182129 14.2529 0.182129C14.0479 0.182129 13.8721 0.255371 13.7256 0.401855L4.73145 9.38135L1.27441 5.93896C1.12793 5.79248 0.952148 5.71924 0.74707 5.71924C0.541992 5.71924 0.366211 5.79248 0.219727 5.93896C0.0732422 6.08545 0 6.26123 0 6.46631C0 6.67139 0.0732422 6.84717 0.219727 6.99365L4.2041 10.978C4.35059 11.1245 4.52637 11.1978 4.73145 11.1978C4.93652 11.1978 5.1123 11.1245 5.25879 10.978L14.7803 1.45654C14.9268 1.31006 15 1.13428 15 0.929199C15 0.724121 14.9268 0.54834 14.7803 0.401855Z" fill="#00BC07"/>
</svg>
