<svg width="16" height="16" viewBox="0 0 16 16" fill="none" xmlns="http://www.w3.org/2000/svg">
<path d="M7.81006 0.579956C6.7749 0.579956 5.80322 0.775269 4.89502 1.16589C3.98682 1.56628 3.19336 2.10583 2.51465 2.78455C1.83594 3.46326 1.29639 4.25671 0.895996 5.16492C0.505371 6.07312 0.310059 7.0448 0.310059 8.07996C0.310059 9.11511 0.505371 10.0868 0.895996 10.995C1.29639 11.9032 1.83594 12.6967 2.51465 13.3754C3.19336 14.0541 3.98682 14.5936 4.89502 14.994C5.80322 15.3846 6.7749 15.58 7.81006 15.58C8.84521 15.58 9.81689 15.3846 10.7251 14.994C11.6333 14.5936 12.4268 14.0541 13.1055 13.3754C13.7842 12.6967 14.3237 11.9032 14.7241 10.995C15.1147 10.0868 15.3101 9.11511 15.3101 8.07996C15.3101 7.0448 15.1147 6.07312 14.7241 5.16492C14.3237 4.25671 13.7842 3.46326 13.1055 2.78455C12.4268 2.10583 11.6333 1.56628 10.7251 1.16589C9.81689 0.775269 8.84521 0.579956 7.81006 0.579956ZM7.81006 15.0819C6.84326 15.0819 5.93506 14.8964 5.08545 14.5253C4.23584 14.1639 3.49365 13.6659 2.85889 13.0311C2.22412 12.3964 1.72607 11.6542 1.36475 10.8046C0.993652 9.95496 0.808105 9.04675 0.808105 8.07996C0.808105 7.11316 0.993652 6.20496 1.36475 5.35535C1.72607 4.50574 2.22412 3.76355 2.85889 3.12878C3.49365 2.49402 4.23584 1.99597 5.08545 1.63464C5.93506 1.26355 6.84326 1.078 7.81006 1.078C8.77686 1.078 9.68506 1.26355 10.5347 1.63464C11.3843 1.99597 12.1265 2.49402 12.7612 3.12878C13.396 3.76355 13.894 4.50574 14.2554 5.35535C14.6265 6.20496 14.812 7.11316 14.812 8.07996C14.812 9.04675 14.6265 9.95496 14.2554 10.8046C13.894 11.6542 13.396 12.3964 12.7612 13.0311C12.1265 13.6659 11.3843 14.1639 10.5347 14.5253C9.68506 14.8964 8.77686 15.0819 7.81006 15.0819ZM7.81006 2.0741C7.7417 2.0741 7.68311 2.09851 7.63428 2.14734C7.58545 2.19617 7.56104 2.25476 7.56104 2.32312V8.07996H3.81104C3.74268 8.07996 3.68408 8.10437 3.63525 8.1532C3.58643 8.20203 3.56201 8.26062 3.56201 8.32898C3.56201 8.39734 3.58643 8.45593 3.63525 8.50476C3.68408 8.55359 3.74268 8.578 3.81104 8.578H7.81006C7.87842 8.578 7.93701 8.55359 7.98584 8.50476C8.03467 8.45593 8.05908 8.39734 8.05908 8.32898V2.32312C8.05908 2.25476 8.03467 2.19617 7.98584 2.14734C7.93701 2.09851 7.87842 2.0741 7.81006 2.0741Z" fill="#707070"/>
</svg>
