<svg width="14" height="15" viewBox="0 0 14 15" fill="none" xmlns="http://www.w3.org/2000/svg">
<path d="M13.4941 6.97412H12.9746C12.9108 6.25407 12.724 5.57503 12.4141 4.93701C12.1133 4.29899 11.7214 3.73617 11.2383 3.24854C10.7552 2.76091 10.1947 2.3667 9.55664 2.06592C8.92773 1.75602 8.2487 1.56917 7.51953 1.50537H7.50586V0.98584C7.50586 0.840007 7.45573 0.719238 7.35547 0.623535C7.25521 0.527832 7.13672 0.47998 7 0.47998C6.86328 0.47998 6.74479 0.527832 6.64453 0.623535C6.54427 0.719238 6.49414 0.840007 6.49414 0.98584V1.50537C5.77409 1.56917 5.09505 1.75146 4.45703 2.05225C3.81901 2.36214 3.25618 2.75863 2.76855 3.2417C2.28092 3.72477 1.88672 4.28532 1.58594 4.92334C1.27604 5.55225 1.08919 6.23128 1.02539 6.96045V6.97412H0.505859C0.360026 6.97412 0.239258 7.02425 0.143555 7.12451C0.0478516 7.22477 0 7.34326 0 7.47998C0 7.6167 0.0478516 7.73519 0.143555 7.83545C0.239258 7.93571 0.360026 7.98584 0.505859 7.98584H1.02539C1.08919 8.70589 1.27604 9.38493 1.58594 10.0229C1.88672 10.661 2.27865 11.2238 2.76172 11.7114C3.24479 12.1991 3.80534 12.5933 4.44336 12.894C5.07227 13.2039 5.7513 13.3908 6.48047 13.4546H6.49414V13.9741C6.49414 14.1108 6.54427 14.2293 6.64453 14.3296C6.74479 14.4299 6.86328 14.48 7 14.48C7.13672 14.48 7.25521 14.4299 7.35547 14.3296C7.45573 14.2293 7.50586 14.1108 7.50586 13.9741V13.4546C8.22591 13.3908 8.90495 13.2039 9.54297 12.894C10.181 12.5933 10.7438 12.2013 11.2314 11.7183C11.7191 11.2352 12.1133 10.6746 12.4141 10.0366C12.724 9.40771 12.9108 8.72868 12.9746 7.99951V7.98584H13.4941C13.6309 7.98584 13.7493 7.93571 13.8496 7.83545C13.9499 7.73519 14 7.6167 14 7.47998C14 7.34326 13.9499 7.22477 13.8496 7.12451C13.7493 7.02425 13.6309 6.97412 13.4941 6.97412ZM7 12.4839C6.30729 12.4839 5.66016 12.3517 5.05859 12.0874C4.44792 11.8231 3.91699 11.4653 3.46582 11.0142C3.01465 10.563 2.6569 10.0321 2.39258 9.42139C2.12826 8.81982 1.99609 8.17269 1.99609 7.47998C1.99609 6.78727 2.12826 6.14014 2.39258 5.53857C2.6569 4.9279 3.01465 4.39697 3.46582 3.9458C3.91699 3.49463 4.44792 3.13688 5.05859 2.87256C5.66016 2.60824 6.30729 2.47607 7 2.47607C7.69271 2.47607 8.33984 2.60824 8.94141 2.87256C9.55208 3.13688 10.083 3.49463 10.5342 3.9458C10.9854 4.39697 11.3431 4.9279 11.6074 5.53857C11.8717 6.14014 12.0039 6.78727 12.0039 7.47998C12.0039 8.17269 11.8717 8.81982 11.6074 9.42139C11.3431 10.0321 10.9854 10.563 10.5342 11.0142C10.083 11.4653 9.55208 11.8231 8.94141 12.0874C8.33984 12.3517 7.69271 12.4839 7 12.4839ZM7 3.97998C6.51693 3.97998 6.0612 4.07113 5.63281 4.25342C5.21354 4.43571 4.8444 4.68636 4.52539 5.00537C4.20638 5.32438 3.95573 5.69352 3.77344 6.11279C3.59115 6.54118 3.5 6.99691 3.5 7.47998C3.5 7.96305 3.59115 8.41878 3.77344 8.84717C3.95573 9.26644 4.20638 9.63558 4.52539 9.95459C4.8444 10.2736 5.21354 10.5243 5.63281 10.7065C6.0612 10.8888 6.51693 10.98 7 10.98C7.48307 10.98 7.9388 10.8888 8.36719 10.7065C8.78646 10.5243 9.1556 10.2736 9.47461 9.95459C9.79362 9.63558 10.0443 9.26644 10.2266 8.84717C10.4089 8.41878 10.5 7.96305 10.5 7.47998C10.5 6.99691 10.4089 6.54118 10.2266 6.11279C10.0443 5.69352 9.79362 5.32438 9.47461 5.00537C9.1556 4.68636 8.78646 4.43571 8.36719 4.25342C7.9388 4.07113 7.48307 3.97998 7 3.97998ZM7 9.98193C6.30729 9.98193 5.71712 9.73812 5.22949 9.25049C4.74186 8.76286 4.49805 8.17269 4.49805 7.47998C4.49805 6.78727 4.74186 6.1971 5.22949 5.70947C5.71712 5.22184 6.30729 4.97803 7 4.97803C7.69271 4.97803 8.28288 5.22184 8.77051 5.70947C9.25814 6.1971 9.50195 6.78727 9.50195 7.47998C9.50195 8.17269 9.25814 8.76286 8.77051 9.25049C8.28288 9.73812 7.69271 9.98193 7 9.98193Z" fill="#FF5300"/>
</svg>
